:SAMPLES-PER-SECOND 30
:FULLY-SPECIFIED
:DEGREES
401
root  -6.01906 40.9723 -0.0719815 -11.6249 -89.3223 14.0056
RightUpLeg  3.35617 -1.8015 -1.55777
RightLeg  -4.53074 -22.3455 2.36468
RightFoot  0.339465 -0.273989 2.70014
RightToes  -3.11842e-008 1.75238e-005 3.56266e-009
Spine  0.824089 -0.282196 -0.945497
Spine1  -4.91452 -0.563476 2.3103
HEad  -18.6334 15.0706 -3.58974
LeftShoulder1  2.75183 -6.32715 -21.6506
LeftArm  -22.311 -14.6826 -45.4748
LeftForeArm  130.037 -50.1619 -165.235
LeftHand  1.45762 -10.5062 -10.1819
RightShoulder  2.42563 5.84915 19.4985
RightArm  -22.4398 29.5919 38.0787
RightForeArm  121.849 48.3627 165.611
RightHand  0.0654087 9.47411 0.110998
LeftUpLeg  4.01396 1.29142 3.03441
LeftLeg  -5.42214 13.2562 -1.53954
LeftFoot  0.732393 0.344276 -3.22364
LeftToes  4.78904e-008 1.4679e-008 1.35657e-009
402
root  -6.11164 40.9508 -0.12962 -0.677612 -88.5114 2.45038
RightUpLeg  4.37571 -1.86882 -1.3861
RightLeg  -4.78307 -23.1109 2.51489
RightFoot  0.0917088 -0.255742 2.56149
RightToes  -3.11842e-008 1.75238e-005 3.56266e-009
Spine  0.236867 -0.515061 -1.44821
Spine1  -2.71491 -0.941063 3.085
HEad  -20.6186 18.1709 -4.72902
LeftShoulder1  2.99361 -6.2717 -24.4332
LeftArm  -19.7426 -2.09685 -45.3223
LeftForeArm  131.504 -46.2731 -167.005
LeftHand  1.71531 -10.7548 -11.8342
RightShoulder  2.95616 6.65052 22.9145
RightArm  -13.3049 21.4595 37.6478
RightForeArm  129.669 45.4206 167.228
RightHand  0.0600201 10.4335 0.025831
LeftUpLeg  4.58848 1.51251 3.25666
LeftLeg  -5.13558 12.193 -1.38379
LeftFoot  0.446293 0.348333 -3.26716
LeftToes  4.78904e-008 1.4679e-008 1.35657e-009
403
root  -6.19458 40.9289 -0.165959 -1.43127 -88.0145 2.68561
RightUpLeg  5.17096 -2.00078 -1.3544
RightLeg  -4.88468 -23.5042 2.61898
RightFoot  -0.219718 -0.240008 2.43449
RightToes  -3.11842e-008 1.75238e-005 3.56266e-009
Spine  -0.94574 -0.290988 -0.920658
Spine1  0.105364 -0.698319 2.46982
HEad  -22.6196 20.2287 -5.61149
LeftShoulder1  3.02196 -6.05329 -25.4559
LeftArm  -21.3934 3.98453 -45.283
LeftForeArm  133.926 -45.3203 -167.495
LeftHand  1.48484 -10.4803 -10.3888
RightShoulder  3.25348 7.04064 24.7635
RightArm  -10.4455 16.3023 36.4065
RightForeArm  135.539 44.706 167.802
RightHand  0.166031 10.2414 0.818397
LeftUpLeg  5.10728 1.48783 3.25766
LeftLeg  -4.8943 11.7099 -1.10631
LeftFoot  0.213771 0.360653 -3.44273
LeftToes  4.78904e-008 1.4679e-008 1.35657e-009
404
root  -6.26035 40.9203 -0.219567 -2.58972 -87.2605 3.48993
RightUpLeg  5.70011 -2.11089 -1.31914
RightLeg  -4.76939 -24.0966 2.62304
RightFoot  -0.497252 -0.236091 2.41228
RightToes  -3.11842e-008 1.75238e-005 3.56266e-009
Spine  -2.48009 0.0128146 -0.423394
Spine1  2.49159 -0.339841 1.90202
HEad  -22.2039 20.4079 -5.60099
LeftShoulder1  2.62278 -5.27364 -23.6439
LeftArm  -25.2405 1.38789 -45.4009
LeftForeArm  135.05 -47.3611 -166.741
LeftHand  1.3675 -9.22902 -10.3603
RightShoulder  2.91045 6.38542 23.2564
RightArm  -12.8511 17.5802 35.9459
RightForeArm  133.419 46.2317 167.094
RightHand  0.157448 9.88301 0.779161
LeftUpLeg  5.42896 1.49728 3.28932
LeftLeg  -4.77295 10.9019 -0.94194
LeftFoot  0.153271 0.359989 -3.4199
LeftToes  4.78904e-008 1.4679e-008 1.35657e-009
405
root  -6.28953 40.9263 -0.264903 -2.73389 -86.5999 3.40533
RightUpLeg  6.03238 -2.12751 -1.24941
RightLeg  -4.69171 -24.6756 2.58905
RightFoot  -0.519649 -0.247088 2.60045
RightToes  -3.11842e-008 1.75238e-005 3.56266e-009
Spine  -2.11544 0.346688 -0.139529
Spine1  1.2359 0.0425307 1.75299
HEad  -17.7597 21.2941 -4.16917
LeftShoulder1  2.43883 -5.08554 -22.1025
LeftArm  -30.1584 -5.71597 -42.6073
LeftForeArm  132.217 -50.3539 -165.258
LeftHand  0.898081 -8.7995 -7.06697
RightShoulder  2.6344 6.119 21.0799
RightArm  -18.2762 22.4306 34.8181
RightForeArm  128.61 49.1203 165.608
RightHand  -0.0965454 9.35245 -1.15212
LeftUpLeg  5.59261 1.49295 3.34014
LeftLeg  -4.71804 10.2503 -0.837048
LeftFoot  0.189082 0.361251 -3.4311
LeftToes  4.78904e-008 1.4679e-008 1.35657e-009
406
root  -6.30062 40.934 -0.292843 -3.4411 -86.0146 4.28815
RightUpLeg  5.80213 -2.20395 -1.29359
RightLeg  -4.48149 -25.1948 2.56121
RightFoot  -0.519488 -0.245618 2.589
RightToes  -3.11842e-008 1.75238e-005 3.56266e-009
Spine  -1.53379 0.691409 0.952685
Spine1  -1.11567 0.630419 0.331336
HEad  -11.2166 21.1195 -1.5222
LeftShoulder1  2.45007 -5.59387 -20.4901
LeftArm  -36.0001 -14.4687 -39.2769
LeftForeArm  130.374 -54.1448 -163.191
LeftHand  0.531601 -9.14861 -3.77525
RightShoulder  2.38957 5.83619 19.1297
RightArm  -24.7418 28.2307 33.8175
RightForeArm  121.561 52.8593 163.348
RightHand  -0.201118 9.20218 -1.99366
LeftUpLeg  5.321 1.3177 3.22866
LeftLeg  -4.71508 9.97061 -0.754499
LeftFoot  0.270057 0.356645 -3.35529
LeftToes  4.78904e-008 1.4679e-008 1.35657e-009
407
root  -6.31363 40.9553 -0.323928 -4.96313 -85.4963 6.0752
RightUpLeg  5.49947 -2.33566 -1.46969
RightLeg  -4.2444 -25.4714 2.56133
RightFoot  -0.503797 -0.256715 2.76729
RightToes  -3.11842e-008 1.75238e-005 3.56266e-009
Spine  -1.51365 0.976477 1.63393
Spine1  -2.452 1.04656 -0.691116
HEad  -6.0732 19.4556 0.481688
LeftShoulder1  2.14376 -5.01548 -18.6279
LeftArm  -40.5075 -23.807 -38.3301
LeftForeArm  126.948 -58.4829 -160.186
LeftHand  0.3716 -4.51595 -4.10927
RightShoulder  2.05947 5.28953 16.8079
RightArm  -30.5944 34.2194 33.6529
RightForeArm  115.283 57.3255 160.231
RightHand  -0.276717 8.77894 -2.64766
LeftUpLeg  4.83434 1.21149 3.1017
LeftLeg  -4.47226 9.71541 -0.737125
LeftFoot  0.515312 0.359262 -3.39655
LeftToes  4.78904e-008 1.4679e-008 1.35657e-009
408
root  -6.32877 40.9608 -0.341981 -5.18475 -85.118 6.26019
RightUpLeg  5.6136 -2.42935 -1.51252
RightLeg  -4.28956 -25.7801 2.66693
RightFoot  -0.546037 -0.251538 2.68873
RightToes  -3.11842e-008 1.75238e-005 3.56266e-009
Spine  -1.12349 1.20633 2.50041
Spine1  -3.70173 1.39772 -1.84065
HEad  -2.22948 17.9491 1.97055
LeftShoulder1  2.00393 -4.98429 -16.9324
LeftArm  -44.6755 -30.8717 -37.4323
LeftForeArm  123.49 -62.6596 -156.511
LeftHand  0.319169 -4.77003 -3.34364
RightShoulder  1.88125 5.20913 14.7974
RightArm  -35.7288 38.3795 33.2932
RightForeArm  110.973 61.3607 156.746
RightHand  -0.342747 8.73137 -3.19702
LeftUpLeg  4.84444 1.2199 3.09759
LeftLeg  -4.50994 9.40039 -0.739322
LeftFoot  0.604563 0.364197 -3.47886
LeftToes  4.78904e-008 1.4679e-008 1.35657e-009
409
root  -6.34597 40.9542 -0.356724 -5.17596 -84.925 6.05621
RightUpLeg  5.94006 -2.39549 -1.4513
RightLeg  -4.44785 -26.0273 2.70646
RightFoot  -0.616048 -0.247452 2.62368
RightToes  -3.11842e-008 1.75238e-005 3.56266e-009
Spine  -0.99951 1.45451 3.06512
Spine1  -4.03544 1.69063 -2.3867
HEad  0.213825 17.2311 1.57422
LeftShoulder1  1.84753 -4.78173 -15.5006
LeftArm  -48.0896 -35.3976 -37.248
LeftForeArm  118.046 -65.2029 -153.373
LeftHand  0.284711 -3.11833 -3.66287
RightShoulder  1.75707 5.23223 13.162
RightArm  -39.1325 40.6692 33.1849
RightForeArm  108.301 64.2201 153.677
RightHand  -0.34125 8.63943 -3.20237
LeftUpLeg  5.0367 1.29604 3.15968
LeftLeg  -4.46318 9.10275 -0.727642
LeftFoot  0.520906 0.36556 -3.51084
LeftToes  4.78904e-008 1.4679e-008 1.35657e-009
410
root  -6.37745 40.9436 -0.359301 -5.55157 -84.6339 6.30145
RightUpLeg  6.15085 -2.46376 -1.47077
RightLeg  -4.40534 -26.2915 2.68378
RightFoot  -0.773938 -0.2436 2.55974
RightToes  -3.11842e-008 1.75238e-005 3.56266e-009
Spine  -1.09648 1.52056 3.42975
Spine1  -4.22479 1.78897 -2.77047
HEad  1.61977 16.92 0.892601
LeftShoulder1  1.73567 -4.5586 -14.6623
LeftArm  -49.288 -36.5671 -37.3541
LeftForeArm  115.985 -66.0526 -152.154
LeftHand  0.325174 -3.08592 -4.23515
RightShoulder  1.66506 5.05484 12.4274
RightArm  -39.7485 41.2025 33.8137
RightForeArm  105.978 65.2763 152.249
RightHand  -0.353717 8.30381 -3.36849
LeftUpLeg  5.21602 1.25612 3.11591
LeftLeg  -4.49016 8.81384 -0.676698
LeftFoot  0.419035 0.368576 -3.57411
LeftToes  4.78904e-008 1.4679e-008 1.35657e-009
411
root  -6.43493 40.9395 -0.366626 -6.19189 -84.2122 6.89459
RightUpLeg  6.36734 -2.52952 -1.54438
RightLeg  -4.4516 -26.6051 2.69712
RightFoot  -0.902306 -0.255242 2.73462
RightToes  -3.11842e-008 1.75238e-005 3.56266e-009
Spine  -1.71252 1.56044 3.24889
Spine1  -3.94646 1.78375 -2.43987
HEad  2.72119 16.2124 0.24104
LeftShoulder1  1.76532 -4.57889 -15.0049
LeftArm  -47.9543 -34.0176 -37.8373
LeftForeArm  116.854 -64.73 -153.768
LeftHand  0.388917 -3.45308 -4.85004
RightShoulder  1.558 4.53591 12.3602
RightArm  -37.2465 39.4598 35.2689
RightForeArm  107.517 64.3698 153.414
RightHand  -0.412887 8.62866 -3.79767
LeftUpLeg  5.3474 1.21739 3.03203
LeftLeg  -4.58211 8.49636 -0.672221
LeftFoot  0.44667 0.361139 -3.48053
LeftToes  4.78904e-008 1.4679e-008 1.35657e-009
